<?xml version="1.0" encoding="UTF-8" standalone="no"?>
<!-- Generator: Adobe Illustrator 16.0.0, SVG Export Plug-In . SVG Version: 6.00 Build 0)  -->

<svg
   xmlns:dc="http://purl.org/dc/elements/1.1/"
   xmlns:cc="http://creativecommons.org/ns#"
   xmlns:rdf="http://www.w3.org/1999/02/22-rdf-syntax-ns#"
   xmlns:svg="http://www.w3.org/2000/svg"
   xmlns="http://www.w3.org/2000/svg"
   xmlns:sodipodi="http://sodipodi.sourceforge.net/DTD/sodipodi-0.dtd"
   xmlns:inkscape="http://www.inkscape.org/namespaces/inkscape"
   version="1.1"
   id="Layer_1"
   x="0px"
   y="0px"
   width="70"
   height="70"
   viewBox="0 0 70 70"
   enable-background="new 0 0 512 512"
   xml:space="preserve"
   inkscape:version="0.47 r22583"
   sodipodi:docname="pstn-fill-black.svg"><metadata
   id="metadata5167"><rdf:RDF><cc:Work
       rdf:about=""><dc:format>image/svg+xml</dc:format><dc:type
         rdf:resource="http://purl.org/dc/dcmitype/StillImage" /></cc:Work></rdf:RDF></metadata><defs
   id="defs5165"><inkscape:perspective
     sodipodi:type="inkscape:persp3d"
     inkscape:vp_x="0 : 256 : 1"
     inkscape:vp_y="0 : 1000 : 0"
     inkscape:vp_z="512 : 256 : 1"
     inkscape:persp3d-origin="256 : 170.66667 : 1"
     id="perspective5169" /></defs><sodipodi:namedview
   pagecolor="#ffffff"
   bordercolor="#666666"
   borderopacity="1"
   objecttolerance="10"
   gridtolerance="10"
   guidetolerance="10"
   inkscape:pageopacity="0"
   inkscape:pageshadow="2"
   inkscape:window-width="1366"
   inkscape:window-height="692"
   id="namedview5163"
   showgrid="false"
   inkscape:zoom="0.4609375"
   inkscape:cx="256"
   inkscape:cy="256"
   inkscape:window-x="0"
   inkscape:window-y="25"
   inkscape:window-maximized="1"
   inkscape:current-layer="Layer_1" />
<path
   d="m 22.716641,70 -5.678067,0 C 16.030273,69.996 14.227227,68.82928 14.175957,68.78238 5.1184766,59.87857 0,47.70199 0,34.99152 0,22.24674 5.1482812,10.03174 14.257168,1.12369 14.261543,1.11945 16.030273,0 17.038574,0 l 5.678067,0 c 2.080722,0 4.545898,1.521 5.477363,3.38803 l 0.397305,0.79898 c 0.927089,1.85856 0.846015,4.86213 -0.18375,6.66504 l -3.815274,6.67365 c -1.034004,1.80729 -3.58039,3.31543 -5.660976,3.31543 l -3.789707,0 c -5.033028,8.75 -5.033028,19.56364 -0.0042,28.31787 l 3.793946,0 c 2.080722,0 4.627109,1.50815 5.660976,3.31543 l 3.811035,6.67366 c 1.029629,1.80304 1.115078,4.798 0.187989,6.66927 l -0.397305,0.79899 C 27.258301,68.47477 24.797363,70 22.716641,70 z M 70,17.5 l 0,35 c 0,4.83219 -3.917812,8.75 -8.75,8.75 l -27.796563,0 c -0.170898,-1.53385 -0.542636,-3.02914 -1.251796,-4.27246 l -3.811036,-6.67365 c -1.832851,-3.20004 -5.806308,-5.52002 -9.459296,-5.52002 l -1.115079,0 c -2.760078,-6.21223 -2.760078,-13.36002 0,-19.56787 l 1.115079,0 c 3.652988,0 7.626308,-2.31998 9.459296,-5.52002 l 3.815274,-6.67366 c 0.709297,-1.24332 1.080898,-2.74298 1.251797,-4.27246 l 27.792324,0 C 66.082188,8.75 70,12.66781 70,17.5 z M 44.84375,50.3125 c 0,-1.81152 -1.469727,-3.28125 -3.28125,-3.28125 -1.811523,0 -3.28125,1.46973 -3.28125,3.28125 0,1.81152 1.469727,3.28125 3.28125,3.28125 1.811523,0 3.28125,-1.46973 3.28125,-3.28125 z m 0,-8.75 c 0,-1.81152 -1.469727,-3.28125 -3.28125,-3.28125 -1.811523,0 -3.28125,1.46973 -3.28125,3.28125 0,1.81152 1.469727,3.28125 3.28125,3.28125 1.811523,0 3.28125,-1.46973 3.28125,-3.28125 z m 0,-8.75 c 0,-1.81152 -1.469727,-3.28125 -3.28125,-3.28125 -1.811523,0 -3.28125,1.46973 -3.28125,3.28125 0,1.81152 1.469727,3.28125 3.28125,3.28125 1.811523,0 3.28125,-1.46973 3.28125,-3.28125 z m 8.75,17.5 c 0,-1.81152 -1.469727,-3.28125 -3.28125,-3.28125 -1.811523,0 -3.28125,1.46973 -3.28125,3.28125 0,1.81152 1.469727,3.28125 3.28125,3.28125 1.811523,0 3.28125,-1.46973 3.28125,-3.28125 z m 0,-8.75 c 0,-1.81152 -1.469727,-3.28125 -3.28125,-3.28125 -1.811523,0 -3.28125,1.46973 -3.28125,3.28125 0,1.81152 1.469727,3.28125 3.28125,3.28125 1.811523,0 3.28125,-1.46973 3.28125,-3.28125 z m 0,-8.75 c 0,-1.81152 -1.469727,-3.28125 -3.28125,-3.28125 -1.811523,0 -3.28125,1.46973 -3.28125,3.28125 0,1.81152 1.469727,3.28125 3.28125,3.28125 1.811523,0 3.28125,-1.46973 3.28125,-3.28125 z m 8.75,17.5 c 0,-1.81152 -1.469727,-3.28125 -3.28125,-3.28125 -1.811523,0 -3.28125,1.46973 -3.28125,3.28125 0,1.81152 1.469727,3.28125 3.28125,3.28125 1.811523,0 3.28125,-1.46973 3.28125,-3.28125 z m 0,-8.75 c 0,-1.81152 -1.469727,-3.28125 -3.28125,-3.28125 -1.811523,0 -3.28125,1.46973 -3.28125,3.28125 0,1.81152 1.469727,3.28125 3.28125,3.28125 1.811523,0 3.28125,-1.46973 3.28125,-3.28125 z m 0,-8.75 c 0,-1.81152 -1.469727,-3.28125 -3.28125,-3.28125 -1.811523,0 -3.28125,1.46973 -3.28125,3.28125 0,1.81152 1.469727,3.28125 3.28125,3.28125 1.811523,0 3.28125,-1.46973 3.28125,-3.28125 z m 0,-13.125 c 0,-1.20914 -0.978359,-2.1875 -2.1875,-2.1875 l -19.6875,0 c -1.209141,0 -2.1875,0.97836 -2.1875,2.1875 l 0,4.375 c 0,1.20914 0.978359,2.1875 2.1875,2.1875 l 19.6875,0 c 1.209141,0 2.1875,-0.97836 2.1875,-2.1875 l 0,-4.375 z"
   id="path5161" />
</svg>