<?xml version="1.0" encoding="UTF-8" standalone="no"?>
<!-- Created with Inkscape (http://www.inkscape.org/) -->

<svg
   xmlns:dc="http://purl.org/dc/elements/1.1/"
   xmlns:cc="http://creativecommons.org/ns#"
   xmlns:rdf="http://www.w3.org/1999/02/22-rdf-syntax-ns#"
   xmlns:svg="http://www.w3.org/2000/svg"
   xmlns="http://www.w3.org/2000/svg"
   xmlns:sodipodi="http://sodipodi.sourceforge.net/DTD/sodipodi-0.dtd"
   xmlns:inkscape="http://www.inkscape.org/namespaces/inkscape"
   width="70"
   height="70"
   viewBox="0 0 70.000002 70.000002"
   id="svg2"
   version="1.1"
   inkscape:version="0.91 r13725"
   sodipodi:docname="Setting-black.svg">
  <defs
     id="defs4" />
  <sodipodi:namedview
     id="base"
     pagecolor="#ffffff"
     bordercolor="#666666"
     borderopacity="1.0"
     inkscape:pageopacity="0.0"
     inkscape:pageshadow="2"
     inkscape:zoom="1"
     inkscape:cx="35.767897"
     inkscape:cy="30.094509"
     inkscape:document-units="px"
     inkscape:current-layer="layer1"
     showgrid="true"
     fit-margin-top="0"
     fit-margin-left="0"
     fit-margin-right="0"
     fit-margin-bottom="0"
     units="px"
     inkscape:window-width="1280"
     inkscape:window-height="752"
     inkscape:window-x="0"
     inkscape:window-y="0"
     inkscape:window-maximized="1">
    <inkscape:grid
       type="xygrid"
       id="grid4138"
       originx="-120"
       originy="-849.99999" />
  </sodipodi:namedview>
  <metadata
     id="metadata7">
    <rdf:RDF>
      <cc:Work
         rdf:about="">
        <dc:format>image/svg+xml</dc:format>
        <dc:type
           rdf:resource="http://purl.org/dc/dcmitype/StillImage" />
        <dc:title></dc:title>
      </cc:Work>
    </rdf:RDF>
  </metadata>
  <g
     inkscape:label="Layer 1"
     inkscape:groupmode="layer"
     id="layer1"
     transform="translate(-120,-132.36221)">
    <path
       inkscape:connector-curvature="0"
       id="path4156"
       d="m 148.15234,194.81039 c -2.52178,-0.4275 -7.97233,-2.961 -8.47926,-3.94128 -0.31335,-0.60596 -0.10136,-1.03489 1.23251,-2.49382 1.41938,-1.55243 1.84313,-2.38729 1.76437,-3.47609 -0.0873,-1.20755 -0.56169,-2.03231 -1.99916,-3.476 -1.44093,-1.44717 -2.2394,-1.90807 -3.29143,-1.89992 -0.98454,0.008 -1.42368,0.28378 -3.16056,1.98754 -2.11335,2.07305 -2.41196,2.11312 -3.39286,0.45524 -1.73982,-2.94056 -3.01808,-6.30207 -3.03625,-7.98456 -0.01,-0.92583 0.022,-1.04442 0.37755,-1.40056 0.38816,-0.38877 0.39015,-0.3891 2.45098,-0.40241 1.62714,-0.0105 2.18778,-0.0653 2.65597,-0.25959 1.31915,-0.54742 1.91868,-1.86145 1.92029,-4.20888 0.002,-2.35467 -0.57904,-3.80867 -1.77123,-4.4352 -0.52601,-0.27644 -0.87796,-0.32614 -2.77333,-0.39169 -2.33735,-0.0808 -2.73695,-0.19077 -2.88853,-0.79472 -0.29423,-1.17231 0.56535,-4.24126 1.96882,-7.02922 0.93428,-1.85592 1.49056,-2.62812 2.10399,-2.92064 0.67422,-0.32152 1.02583,-0.13722 2.54286,1.33291 1.50205,1.4556 2.07112,1.77582 3.1356,1.76438 1.30733,-0.014 2.83882,-1.03474 4.13945,-2.75883 1.17021,-1.55121 1.47148,-2.60103 1.10661,-3.85613 -0.20665,-0.71084 -0.38882,-0.95134 -1.68843,-2.22909 -1.72186,-1.6929 -1.80166,-1.93704 -0.89955,-2.75204 1.42577,-1.28811 6.91177,-3.45074 8.75355,-3.45074 0.79788,0 0.92389,0.0393 1.18325,0.36903 0.26243,0.33362 0.29035,0.5587 0.29106,2.34594 9.8e-4,2.38816 0.12862,2.91348 0.89421,3.67906 0.80431,0.80431 1.79893,1.09495 3.72686,1.08903 1.89397,-0.006 2.87843,-0.28756 3.72207,-1.0652 0.8317,-0.76663 1.03983,-1.49704 1.03983,-3.64912 0,-1.20437 0.0579,-1.77422 0.21031,-2.06889 0.43321,-0.83773 1.71034,-0.81427 4.27529,0.0785 2.97107,1.03416 5.55001,2.3312 6.14881,3.09245 0.57109,0.72603 0.4264,1.06185 -1.15997,2.69223 -1.75941,1.80824 -1.9711,2.17067 -1.97474,3.38092 -0.004,1.20007 0.4318,1.993 1.89579,3.45238 1.28356,1.27952 2.28965,1.86371 3.20955,1.86364 1.06154,-8e-5 1.75037,-0.4314 3.3566,-2.10178 1.64791,-1.71373 1.97978,-1.85705 2.76677,-1.19484 1.10292,0.92805 3.46953,6.38041 3.75036,8.64034 0.11697,0.94126 -0.13102,1.54624 -0.72847,1.77714 -0.21547,0.0833 -1.21108,0.17459 -2.21248,0.20292 -1.44897,0.041 -1.94942,0.10943 -2.45099,0.33516 -1.37974,0.62095 -2.11511,2.16243 -2.12859,4.46201 -0.01,1.68516 0.31278,2.81824 1.03677,3.64073 0.75845,0.86165 1.45338,1.05115 3.8547,1.05115 1.8005,0 1.88478,0.0131 2.21548,0.34377 0.6186,0.61861 0.44933,2.0268 -0.57793,4.80777 -0.67705,1.83288 -1.8843,4.33742 -2.36315,4.90251 -0.56394,0.66551 -1.08636,0.90543 -1.57066,0.7213 -0.2142,-0.0814 -1.05399,-0.79611 -1.86619,-1.58814 -1.19916,-1.1694 -1.61484,-1.48594 -2.21155,-1.68414 -1.40274,-0.46592 -2.71503,0.0529 -4.40598,1.74185 -1.4111,1.40945 -2.00315,2.58056 -1.88472,3.72806 0.0994,0.96262 0.51571,1.67989 1.74567,3.0073 0.52823,0.57009 1.06686,1.19236 1.19694,1.38282 0.2996,0.43864 0.30311,1.10696 0.008,1.52826 -0.77711,1.10949 -6.3706,3.52908 -8.67178,3.75118 -0.7674,0.0741 -0.88594,0.0483 -1.2605,-0.27416 l -0.41344,-0.35592 0,-2.28774 c 0,-2.24325 -0.007,-2.30048 -0.38497,-2.94262 -0.29108,-0.49517 -0.56433,-0.74162 -1.12045,-1.01056 -1.89202,-0.915 -5.26511,-0.77639 -6.64079,0.27289 -0.87451,0.66702 -1.08044,1.36544 -1.09197,3.70347 -0.007,1.3449 -0.0689,2.13517 -0.18449,2.33981 -0.14233,0.25209 -1.01405,0.64631 -1.29162,0.58411 -0.0385,-0.009 -0.3557,-0.0641 -0.70486,-0.12331 l 0,0 z m 8.81538,-21.13318 c 2.72796,-0.84904 4.49453,-3.28208 4.49453,-6.19018 0,-3.24356 -2.29127,-5.92212 -5.4972,-6.42637 -3.46064,-0.54431 -6.78962,1.91159 -7.3863,5.44915 -0.41535,2.46248 0.90273,5.2951 3.04928,6.55307 1.50642,0.88281 3.6753,1.13234 5.33969,0.61433 z"
       style="opacity:0.78699999;fill:#000000;fill-opacity:1;fill-rule:nonzero;stroke:none;stroke-width:0.0280112;stroke-linecap:butt;stroke-linejoin:round;stroke-miterlimit:4;stroke-dasharray:none;stroke-dashoffset:0;stroke-opacity:1" />
  </g>
</svg>
