<?xml version="1.0" encoding="UTF-8" standalone="no"?>
<!-- Created with Inkscape (http://www.inkscape.org/) -->

<svg
   xmlns:dc="http://purl.org/dc/elements/1.1/"
   xmlns:cc="http://creativecommons.org/ns#"
   xmlns:rdf="http://www.w3.org/1999/02/22-rdf-syntax-ns#"
   xmlns:svg="http://www.w3.org/2000/svg"
   xmlns="http://www.w3.org/2000/svg"
   xmlns:sodipodi="http://sodipodi.sourceforge.net/DTD/sodipodi-0.dtd"
   xmlns:inkscape="http://www.inkscape.org/namespaces/inkscape"
   width="70"
   height="70"
   viewBox="0 0 70.000004 70.000004"
   id="svg2"
   version="1.1"
   inkscape:version="0.91 r13725"
   sodipodi:docname="Setting-white.svg">
  <defs
     id="defs4" />
  <sodipodi:namedview
     id="base"
     pagecolor="#000000"
     bordercolor="#666666"
     borderopacity="1.0"
     inkscape:pageopacity="0"
     inkscape:pageshadow="2"
     inkscape:zoom="5.34"
     inkscape:cx="31.381043"
     inkscape:cy="41.745208"
     inkscape:document-units="px"
     inkscape:current-layer="layer1"
     showgrid="false"
     fit-margin-top="-9.2"
     fit-margin-left="-9.2"
     fit-margin-right="-9.2"
     fit-margin-bottom="-9.2"
     units="px"
     inkscape:window-width="1280"
     inkscape:window-height="752"
     inkscape:window-x="0"
     inkscape:window-y="0"
     inkscape:window-maximized="1"
     borderlayer="false">
    <inkscape:grid
       type="xygrid"
       id="grid4138"
       originx="20.222414"
       originy="-864.95" />
  </sodipodi:namedview>
  <metadata
     id="metadata7">
    <rdf:RDF>
      <cc:Work
         rdf:about="">
        <dc:format>image/svg+xml</dc:format>
        <dc:type
           rdf:resource="http://purl.org/dc/dcmitype/StillImage" />
        <dc:title></dc:title>
      </cc:Work>
    </rdf:RDF>
  </metadata>
  <g
     inkscape:label="Layer 1"
     inkscape:groupmode="layer"
     id="layer1"
     transform="translate(20.22241,-117.4122)">
    <path
       id="circle4208"
       style="opacity:0.78699999;fill:none;fill-opacity:1;fill-rule:nonzero;stroke:#ffffff;stroke-width:1.50000024;stroke-linecap:round;stroke-linejoin:round;stroke-miterlimit:4;stroke-dasharray:none;stroke-dashoffset:0;stroke-opacity:1"
       sodipodi:type="arc"
       sodipodi:cx="14.905952"
       sodipodi:cy="152.36218"
       sodipodi:rx="5.1944218"
       sodipodi:ry="5.1944218"
       sodipodi:start="0.91633392"
       sodipodi:end="5.2795378"
       sodipodi:open="true"
       d="m 18.067967,156.48331 a 5.1944218,5.1944218 0 0 1 -6.888043,-0.50191 5.1944218,5.1944218 0 0 1 -0.301412,-6.89973 5.1944218,5.1944218 0 0 1 6.818037,-1.10065" />
    <path
       style="fill:none;fill-rule:evenodd;stroke:#ffffff;stroke-width:1.50000018;stroke-linecap:butt;stroke-linejoin:miter;stroke-opacity:1;stroke-miterlimit:4;stroke-dasharray:none"
       d="m 27.427255,136.76627 -4.753045,2.67359 -4.222298,-1.67292 -1.567275,-5.28955 -4.310008,0 -1.469322,5.28955 -4.0161457,1.66523 -4.7018238,-2.64477 -3.13455528,3.13455 2.54682388,4.79978 -1.76318506,4.21206 -5.09364324,1.46931 0,4.1141 5.28955521,1.66523 1.66522909,4.01615 -2.54682389,4.70183 3.13455069,3.13455 4.7018284,-2.64478 4.1141017,1.66523 1.371366,5.1916 4.40796,0 1.567277,-5.28955 4.016144,-1.66523 4.799782,2.74273 3.036597,-3.23251 -2.644778,-4.70183 1.763185,-4.01614 5.093646,-1.56728 0,-4.31 -5.289555,-1.66523 -1.665231,-4.01615 2.742733,-4.70183 z"
       id="path4210"
       inkscape:connector-curvature="0" />
    <path
       style="fill:none;fill-rule:evenodd;stroke:#ffffff;stroke-width:1.50000024;stroke-linecap:round;stroke-linejoin:miter;stroke-miterlimit:4;stroke-dasharray:none;stroke-opacity:1"
       d="m 17.708623,147.9429 0.542381,8.18967 0,0"
       id="path4218"
       inkscape:connector-curvature="0"
       sodipodi:nodetypes="ccc" />
  </g>
</svg>
