<?xml version="1.0" encoding="UTF-8" standalone="no"?>
<!-- Generator: Adobe Illustrator 15.0.2, SVG Export Plug-In . SVG Version: 6.00 Build 0)  -->

<svg
   xmlns:dc="http://purl.org/dc/elements/1.1/"
   xmlns:cc="http://creativecommons.org/ns#"
   xmlns:rdf="http://www.w3.org/1999/02/22-rdf-syntax-ns#"
   xmlns:svg="http://www.w3.org/2000/svg"
   xmlns="http://www.w3.org/2000/svg"
   xmlns:sodipodi="http://sodipodi.sourceforge.net/DTD/sodipodi-0.dtd"
   xmlns:inkscape="http://www.inkscape.org/namespaces/inkscape"
   version="1.1"
   id="Layer_1"
   x="0px"
   y="0px"
   width="70"
   height="70"
   viewBox="0 0 70 69.999997"
   enable-background="new 0 0 512 512.038"
   xml:space="preserve"
   inkscape:version="0.47 r22583"
   sodipodi:docname="settings-fill-black.svg"><metadata
   id="metadata9"><rdf:RDF><cc:Work
       rdf:about=""><dc:format>image/svg+xml</dc:format><dc:type
         rdf:resource="http://purl.org/dc/dcmitype/StillImage" /></cc:Work></rdf:RDF></metadata><defs
   id="defs7"><inkscape:perspective
     sodipodi:type="inkscape:persp3d"
     inkscape:vp_x="0 : 256.01901 : 1"
     inkscape:vp_y="0 : 1000 : 0"
     inkscape:vp_z="512 : 256.01901 : 1"
     inkscape:persp3d-origin="256 : 170.67934 : 1"
     id="perspective11" /></defs><sodipodi:namedview
   pagecolor="#ffffff"
   bordercolor="#666666"
   borderopacity="1"
   objecttolerance="10"
   gridtolerance="10"
   guidetolerance="10"
   inkscape:pageopacity="0"
   inkscape:pageshadow="2"
   inkscape:window-width="1366"
   inkscape:window-height="692"
   id="namedview5"
   showgrid="false"
   inkscape:zoom="0.46090327"
   inkscape:cx="256"
   inkscape:cy="251.68069"
   inkscape:window-x="0"
   inkscape:window-y="25"
   inkscape:window-maximized="1"
   inkscape:current-layer="Layer_1" />
<path
   d="m 9.1906984,41.282078 c 0.7179143,2.90792 1.9028626,5.61776 3.4639266,8.05937 l -4.3613538,4.37835 c -1.9571403,1.9563 -1.9388199,3.12365 -0.2156067,4.84659 l 4.2544395,4.25395 c 1.740576,1.74235 2.925524,1.70557 4.846024,-0.21559 l 4.577644,-4.59394 c 2.153606,1.23393 4.487546,2.18924 6.964494,2.79924 l 0,5.60025 c 0,2.78174 0.84397,3.58969 3.26664,3.58969 l 6.030973,0 c 2.459311,0 3.267461,-0.86236 3.267461,-3.58969 l 0,-5.60025 c 2.476811,-0.61 4.810067,-1.56176 6.964357,-2.79924 l 4.685516,4.70099 c 1.938819,1.91583 3.102713,1.95615 4.845067,0.235 l 4.273716,-4.27337 c 1.703936,-1.7038 1.740714,-2.87634 -0.234884,-4.84481 l -4.487546,-4.48704 c 1.581162,-2.44161 2.76611,-5.15158 3.477872,-8.05936 l 5.928434,0 c 2.453979,0 3.262128,-0.8625 3.262128,-3.58983 l 0,-5.38467 c 0,-2.65638 -0.70643,-3.58968 -3.262128,-3.58968 l -5.928434,0 c -0.610042,-2.47675 -1.561884,-4.8105 -2.804801,-6.96393 l 4.277134,-4.25395 c 1.884406,-1.88425 2.045735,-3.0516 0.233107,-4.84645 L 58.242939,8.3821175 c -1.705576,-1.70557 -2.930994,-1.68711 -4.846845,0.23309 l -4.05811,4.0385005 C 46.903146,11.092778 44.193091,9.9079275 41.285066,9.1900675 l 0,-5.60026 C 41.285476,0.93342755 40.584242,-1.2451172e-5 38.017879,-1.2451172e-5 l -6.030973,0 c -2.42267,0 -3.26664,0.879990001172 -3.26664,3.589819951172 l 0,5.60012 c -2.908162,0.71786 -5.618217,1.9027105 -8.060028,3.4636505 L 16.603906,8.6150775 c -1.920363,-1.92021 -3.141405,-1.93866 -4.846982,-0.23309 L 7.485122,12.653578 c -1.8126278,1.79484 -1.6512988,2.96219 0.2331068,4.84644 l 4.2543022,4.25396 c -1.220085,2.15343 -2.1719267,4.48718 -2.7819693,6.96392 l -5.9240582,0 C 0.84396979,28.717898 0,29.597888 0,32.307588 l 0,5.38467 c 0,2.78174 0.84396979,3.58982 3.2666402,3.58982 l 5.9240582,0 z m 15.5441926,-6.28202 c 0,-5.67203 4.595418,-10.26625 10.268048,-10.26625 5.672631,0 10.268596,4.59408 10.268596,10.26625 0,5.67216 -4.596101,10.26775 -10.268596,10.26775 -5.672494,0 -10.268048,-4.59572 -10.268048,-10.26775 z"
   id="path3" />
</svg>